<svg width="501" height="502" viewBox="0 0 501 502" fill="none" xmlns="http://www.w3.org/2000/svg">

<path d="M344.438 266.688C338.707 266.688 333.4 268.35 328.781 271.033V156.875C328.781 113.562 250.5 31.375 250.5 31.375C250.5 31.375 172.219 113.562 172.219 156.875V271.033C167.6 268.35 162.293 266.688 156.562 266.688C139.262 266.688 125.25 280.728 125.25 298.062V392.188H187.875V360.812H213.974L203.531 392.188H297.469L287.026 360.812H313.125V392.188H375.75V298.062C375.75 280.728 361.738 266.688 344.438 266.688ZM250.5 54.5768C256.919 61.8401 263.698 69.9819 270.352 78.4375H230.679C237.317 69.9976 244.081 61.8401 250.5 54.5768ZM156.562 282.375C165.189 282.375 172.219 289.419 172.219 298.062H140.906C140.906 289.419 147.936 282.375 156.562 282.375ZM172.219 376.5H140.906V313.75H172.219V376.5ZM275.754 376.5H225.262L230.476 360.812H270.524L275.754 376.5ZM281.812 345.125H219.188H187.875V298.062V156.875C187.875 141.925 201.872 117.515 219.188 93.6073V94.125H281.812V93.5759C299.128 117.484 313.125 141.893 313.125 156.875V298.062V345.125H281.812ZM360.094 376.5H328.781V313.75H360.094V376.5ZM328.781 298.062C328.781 289.419 335.811 282.375 344.438 282.375C353.064 282.375 360.094 289.419 360.094 298.062H328.781Z" fill="#2B4099"/>
<path d="M250.5 156.875C267.769 156.875 281.812 170.947 281.812 188.25C281.812 205.553 267.769 219.625 250.5 219.625C233.231 219.625 219.188 205.553 219.188 188.25C219.188 170.947 233.231 156.875 250.5 156.875ZM250.5 141.188C224.558 141.188 203.531 162.256 203.531 188.25C203.531 214.244 224.558 235.312 250.5 235.312C276.442 235.312 297.469 214.244 297.469 188.25C297.469 162.256 276.442 141.188 250.5 141.188ZM250.5 423.562C254.68 423.562 258.61 425.194 261.569 428.159C267.675 434.277 267.675 444.223 261.569 450.341L250.5 461.432L239.431 450.341C233.325 444.223 233.325 434.277 239.431 428.159C242.39 425.194 246.32 423.562 250.5 423.562ZM250.5 407.875C242.484 407.875 234.468 410.934 228.362 417.068C216.135 429.32 216.135 449.18 228.362 461.432L250.5 483.614L272.638 461.432C284.865 449.18 284.865 429.32 272.638 417.068C266.532 410.934 258.516 407.875 250.5 407.875ZM140.906 407.875H125.25V454.938H140.906V407.875ZM172.219 407.875H156.562V423.562H172.219V407.875ZM344.438 407.875H328.781V423.562H344.438V407.875ZM172.219 439.25H156.562V486.312H172.219V439.25ZM344.438 439.25H328.781V486.312H344.438V439.25ZM375.75 407.875H360.094V454.938H375.75V407.875ZM438.375 211.781C438.375 207.451 441.882 203.938 446.203 203.938C450.524 203.938 454.031 207.451 454.031 211.781C454.031 216.111 450.524 219.625 446.203 219.625C441.882 219.625 438.375 216.111 438.375 211.781ZM422.719 211.781C422.719 224.771 433.24 235.312 446.203 235.312C459.167 235.312 469.688 224.771 469.688 211.781C469.688 198.792 459.167 188.25 446.203 188.25C433.24 188.25 422.719 198.792 422.719 211.781ZM78.2812 39.2188C78.2812 34.889 81.7882 31.375 86.1094 31.375C90.4305 31.375 93.9375 34.889 93.9375 39.2188C93.9375 43.5485 90.4305 47.0625 86.1094 47.0625C81.7882 47.0625 78.2812 43.5485 78.2812 39.2188ZM62.625 39.2188C62.625 52.208 73.146 62.75 86.1094 62.75C99.0728 62.75 109.594 52.208 109.594 39.2188C109.594 26.2295 99.0728 15.6875 86.1094 15.6875C73.146 15.6875 62.625 26.2295 62.625 39.2188ZM438.375 109.812H454.031V125.5H438.375V109.812ZM31.3125 109.812H46.9688V125.5H31.3125V109.812ZM109.594 109.812H125.25V125.5H109.594V109.812ZM62.625 172.562H78.2812V188.25H62.625V172.562ZM438.375 31.375H454.031V47.0625H438.375V31.375ZM93.9375 235.312H109.594V251H93.9375V235.312ZM187.875 31.375H203.531V47.0625H187.875V31.375ZM375.75 141.188H391.406V156.875H375.75V141.188ZM391.406 62.75V78.4375H375.75V62.75H391.406ZM328.781 15.6875H344.438V31.375H328.781V15.6875Z" fill="#CC2954"/>
</svg>
